<svg xmlns="http://www.w3.org/2000/svg" viewBox="0 0 256 256"><defs><style>.cls-1{fill:none;}.cls-2{fill:#0098f0;}</style></defs><g id="Layer_2" data-name="Layer 2"><g id="App_Icon_Kit_A" data-name="App Icon Kit A"><rect class="cls-1" width="256" height="256" rx="44.95"/><path class="cls-2" d="M246.26,43.25a57,57,0,0,0-101.41,0L126.08,84.5H162.6l11.45-26.85a24.19,24.19,0,0,1,43,0A23,23,0,0,1,216,80.71,23.61,23.61,0,0,1,195.55,92H54.06v32.2H195.55a56.55,56.55,0,0,0,48.23-26.51A54.89,54.89,0,0,0,246.26,43.25Z"/><path class="cls-2" d="M9.74,212.75a56.46,56.46,0,0,0,50.71,30.91,56.44,56.44,0,0,0,50.7-30.91l18.77-41.25H93.4L82,198.35a23.64,23.64,0,0,1-21.5,13.1A23.64,23.64,0,0,1,39,198.35,23,23,0,0,1,40,175.29,23.61,23.61,0,0,1,60.45,164H201.94v-32.2H60.45a56.55,56.55,0,0,0-48.23,26.51A54.89,54.89,0,0,0,9.74,212.75Z"/></g></g></svg>