<svg xmlns="http://www.w3.org/2000/svg" viewBox="0 0 648.96 264"><defs><style>.cls-1,.cls-2{fill:#fff;}.cls-1,.cls-2,.cls-5{stroke:#0098f0;stroke-miterlimit:10;stroke-width:2px;}.cls-1,.cls-4{fill-rule:evenodd;}.cls-3,.cls-4{fill:#0098f0;}.cls-5{fill:none;}</style></defs><g id="Layer_2" data-name="Layer 2"><g id="App_Icon_Kit_A" data-name="App Icon Kit A"><path id="Case" class="cls-1" d="M126,40.81a7.28,7.28,0,0,1,7.29-7.29H386.83a7.29,7.29,0,0,1,7.29,7.29V214.35a7.28,7.28,0,0,1-7.29,7.28H133.26a7.28,7.28,0,0,1-7.29-7.28Z"/><path id="Case-2" data-name="Case" class="cls-1" d="M142.37,52.78a3.13,3.13,0,0,1,3.13-3.13H374.33a3.13,3.13,0,0,1,3.13,3.13v129.3a3.13,3.13,0,0,1-3.13,3.13H145.5a3.13,3.13,0,0,1-3.13-3.13V52.78Z"/><path id="Case-3" data-name="Case" class="cls-1" d="M241,221.63H279.4l2.6,33.56H238.35Z"/><path id="Keyboard" class="cls-1" d="M222.29,262.48V259a3.78,3.78,0,0,1,3.77-3.78h68.23a3.79,3.79,0,0,1,3.77,3.78v3.51a.26.26,0,0,1-.27.26H222.56A.27.27,0,0,1,222.29,262.48Z"/><circle id="Oval-6" class="cls-2" cx="260.17" cy="204.85" r="4.82"/><rect id="Case-4" data-name="Case" class="cls-2" x="101.23" y="161.79" width="51.55" height="100.95" rx="6.24"/><path id="Case-5" data-name="Case" class="cls-1" d="M101.23,173h51.55v74.75H101.23Z"/><rect id="Rectangle-11" class="cls-3" x="114.77" y="166.21" width="24.73" height="2.08" rx="1.04"/><rect id="Rectangle-11-2" data-name="Rectangle-11" class="cls-2" x="124.14" y="252.07" width="5.94" height="5.93" rx="2.97"/><circle id="Oval-6-2" data-name="Oval-6" class="cls-2" cx="115.81" cy="210.18" r="3.91"/><rect id="Rectangle-11-3" data-name="Rectangle-11" class="cls-3" x="124.93" y="203.42" width="18.22" height="2.08" rx="1.04"/><rect id="Rectangle-11-4" data-name="Rectangle-11" class="cls-3" x="124.93" y="209.14" width="13.02" height="2.08" rx="1.04"/><rect id="Rectangle-11-5" data-name="Rectangle-11" class="cls-3" x="124.93" y="214.87" width="7.81" height="2.08" rx="1.04"/><ellipse id="Oval-7" class="cls-2" cx="74.81" cy="170.77" rx="39.96" ry="39.94"/><rect id="Case-6" data-name="Case" class="cls-2" x="319.66" y="122.5" width="192.65" height="129.31" rx="6.24"/><path id="Keyboard-2" data-name="Keyboard" class="cls-1" d="M306.39,252.07v5.21a5.46,5.46,0,0,0,5.46,5.46H520.14a5.47,5.47,0,0,0,5.46-5.46v-5.21a.26.26,0,0,0-.26-.26H306.64A.25.25,0,0,0,306.39,252.07Z"/><path id="Notch" class="cls-1" d="M430.39,251.93H401.23a8.06,8.06,0,0,0,7.54,5.2h14.08A8.07,8.07,0,0,0,430.39,251.93Z"/><rect id="Screen" class="cls-2" x="328.25" y="134.73" width="175.32" height="105.07" rx="2.08"/><circle id="Oval-3" class="cls-3" cx="254.32" cy="52" r="1.3"/><path id="Case-7" data-name="Case" class="cls-1" d="M179.86,14H300.14V129.27a7.29,7.29,0,0,1-7.29,7.28H187.15a7.28,7.28,0,0,1-7.29-7.28Z"/><path id="Case-8" data-name="Case" class="cls-1" d="M179.86,8.28A7.29,7.29,0,0,1,187.15,1h105.7a7.29,7.29,0,0,1,7.29,7.28v7.81H179.86Z"/><circle id="Oval-5" class="cls-2" cx="191.05" cy="8.55" r="2.34"/><circle id="Oval-5-2" data-name="Oval-5" class="cls-2" cx="198.86" cy="8.55" r="2.34"/><circle id="Oval-5-3" data-name="Oval-5" class="cls-2" cx="206.67" cy="8.55" r="2.34"/><path id="Rectangle-11-6" data-name="Rectangle-11" class="cls-4" d="M195.48,90h2.6a1,1,0,0,1,1,1h0a1,1,0,0,1-1,1h-2.6a1,1,0,0,1-1-1h0A1,1,0,0,1,195.48,90Z"/><path id="Rectangle-11-7" data-name="Rectangle-11" class="cls-4" d="M195.48,38h2.6a1,1,0,0,1,1,1h0a1,1,0,0,1-1,1h-2.6a1,1,0,0,1-1-1h0A1,1,0,0,1,195.48,38Z"/><path id="Rectangle-11-8" data-name="Rectangle-11" class="cls-4" d="M203.29,38h7a1,1,0,0,1,0,2.08h-7a1,1,0,1,1,0-2.08Z"/><path id="Rectangle-11-9" data-name="Rectangle-11" class="cls-4" d="M215,38h7A1,1,0,1,1,222,40h-7A1,1,0,1,1,215,38Z"/><path id="Rectangle-11-10" data-name="Rectangle-11" class="cls-4" d="M226.72,38h13a1,1,0,0,1,0,2.08h-13a1,1,0,1,1,0-2.08Z"/><path id="Rectangle-11-11" data-name="Rectangle-11" class="cls-4" d="M244.42,38h19.27a1,1,0,1,1,0,2.08H244.42a1,1,0,1,1,0-2.08Z"/><path id="Rectangle-11-12" data-name="Rectangle-11" class="cls-4" d="M195.48,48.35h2.6a1,1,0,0,1,1,1h0a1,1,0,0,1-1,1h-2.6a1,1,0,0,1-1-1h0A1,1,0,0,1,195.48,48.35Z"/><path id="Rectangle-11-13" data-name="Rectangle-11" class="cls-4" d="M195.48,58.76h2.6a1,1,0,0,1,1,1h0a1,1,0,0,1-1,1h-2.6a1,1,0,0,1-1-1h0A1,1,0,0,1,195.48,58.76Z"/><path id="Rectangle-11-14" data-name="Rectangle-11" class="cls-4" d="M195.48,69.17h2.6a1,1,0,0,1,1,1h0a1,1,0,0,1-1,1h-2.6a1,1,0,0,1-1-1h0A1,1,0,0,1,195.48,69.17Z"/><path id="Rectangle-11-15" data-name="Rectangle-11" class="cls-4" d="M195.48,79.57h2.6a1,1,0,0,1,1,1h0a1,1,0,0,1-1,1h-2.6a1,1,0,0,1-1-1h0A1,1,0,0,1,195.48,79.57Z"/><path id="Rectangle-11-16" data-name="Rectangle-11" class="cls-4" d="M195.48,100.39h2.6a1,1,0,0,1,1,1h0a1,1,0,0,1-1,1h-2.6a1,1,0,0,1-1-1h0A1,1,0,0,1,195.48,100.39Z"/><path id="Rectangle-11-17" data-name="Rectangle-11" class="cls-4" d="M195.48,110.8h2.6a1,1,0,0,1,1,1h0a1,1,0,0,1-1,1h-2.6a1,1,0,0,1-1-1h0A1,1,0,0,1,195.48,110.8Z"/><path id="Rectangle-11-18" data-name="Rectangle-11" class="cls-4" d="M203.29,48.35h16.14a1,1,0,0,1,1,1h0a1,1,0,0,1-1,1H203.29a1,1,0,0,1-1-1h0A1,1,0,0,1,203.29,48.35Z"/><path id="Rectangle-11-19" data-name="Rectangle-11" class="cls-4" d="M224.12,48.35h29.16a1,1,0,0,1,1,1h0a1,1,0,0,1-1,1H224.12a1,1,0,0,1-1-1h0A1,1,0,0,1,224.12,48.35Z"/><path id="Rectangle-11-20" data-name="Rectangle-11" class="cls-4" d="M258,48.35H268.9a1,1,0,0,1,1,1h0a1,1,0,0,1-1,1H258a1,1,0,0,1-1-1h0A1,1,0,0,1,258,48.35Z"/><path id="Rectangle-11-21" data-name="Rectangle-11" class="cls-4" d="M203.29,58.76h10.93a1,1,0,0,1,1.05,1h0a1,1,0,0,1-1.05,1H203.29a1,1,0,0,1-1-1h0A1,1,0,0,1,203.29,58.76Z"/><path id="Rectangle-11-22" data-name="Rectangle-11" class="cls-4" d="M218.91,58.76h10.94a1,1,0,0,1,1,1h0a1,1,0,0,1-1,1H218.91a1,1,0,0,1-1-1h0A1,1,0,0,1,218.91,58.76Z"/><path id="Rectangle-11-23" data-name="Rectangle-11" class="cls-4" d="M234.53,58.76h5.73a1,1,0,0,1,1,1h0a1,1,0,0,1-1,1h-5.73a1,1,0,0,1-1-1h0A1,1,0,0,1,234.53,58.76Z"/><path id="Rectangle-11-24" data-name="Rectangle-11" class="cls-4" d="M203.29,69.17h24a1,1,0,0,1,1,1h0a1,1,0,0,1-1,1h-24a1,1,0,0,1-1-1h0A1,1,0,0,1,203.29,69.17Z"/><path id="Rectangle-11-25" data-name="Rectangle-11" class="cls-4" d="M231.93,69.17h16.14a1,1,0,0,1,1,1h0a1,1,0,0,1-1,1H231.93a1,1,0,0,1-1-1h0A1,1,0,0,1,231.93,69.17Z"/><path id="Rectangle-11-26" data-name="Rectangle-11" class="cls-4" d="M203.29,79.57h24a1,1,0,0,1,1,1h0a1,1,0,0,1-1,1h-24a1,1,0,0,1-1-1h0A1,1,0,0,1,203.29,79.57Z"/><path id="Rectangle-11-27" data-name="Rectangle-11" class="cls-4" d="M231.93,79.57h31.76a1,1,0,0,1,1,1h0a1,1,0,0,1-1,1H231.93a1,1,0,0,1-1-1h0A1,1,0,0,1,231.93,79.57Z"/><path id="Rectangle-11-28" data-name="Rectangle-11" class="cls-4" d="M203.29,90h16.14a1,1,0,0,1,1,1h0a1,1,0,0,1-1,1H203.29a1,1,0,0,1-1-1h0A1,1,0,0,1,203.29,90Z"/><path id="Rectangle-11-29" data-name="Rectangle-11" class="cls-4" d="M224.12,90h16.14a1,1,0,0,1,1,1h0a1,1,0,0,1-1,1H224.12a1,1,0,0,1-1-1h0A1,1,0,0,1,224.12,90Z"/><path id="Rectangle-11-30" data-name="Rectangle-11" class="cls-4" d="M244.94,90h8.34a1,1,0,0,1,1,1h0a1,1,0,0,1-1,1h-8.34a1,1,0,0,1-1-1h0A1,1,0,0,1,244.94,90Z"/><path id="Rectangle-11-31" data-name="Rectangle-11" class="cls-4" d="M203.29,100.39h31.76a1,1,0,0,1,1,1h0a1,1,0,0,1-1,1H203.29a1,1,0,0,1-1-1h0A1,1,0,0,1,203.29,100.39Z"/><path id="Rectangle-11-32" data-name="Rectangle-11" class="cls-4" d="M203.29,110.8h13.54a1,1,0,0,1,1,1h0a1,1,0,0,1-1,1H203.29a1,1,0,0,1-1-1h0A1,1,0,0,1,203.29,110.8Z"/><path id="Case-9" data-name="Case" class="cls-1" d="M415,95.71H557.62V197.18a7.28,7.28,0,0,1-7.29,7.28H422.24a7.29,7.29,0,0,1-7.29-7.28Z"/><path id="Case-10" data-name="Case" class="cls-1" d="M415,90a7.27,7.27,0,0,1,7.29-7.27H550.33A7.27,7.27,0,0,1,557.62,90v7.82H415Z"/><circle id="Oval-5-4" data-name="Oval-5" class="cls-2" cx="426.14" cy="90.24" r="2.34"/><circle id="Oval-5-5" data-name="Oval-5" class="cls-2" cx="433.96" cy="90.24" r="2.34"/><circle id="Oval-5-6" data-name="Oval-5" class="cls-2" cx="441.77" cy="90.24" r="2.34"/><ellipse id="Oval-6-3" data-name="Oval-6" class="cls-2" cx="503.21" cy="150.08" rx="26.03" ry="26.02"/><path id="Rectangle-12" class="cls-1" d="M500.34,120.94v6.25h6.25v-6.25Z"/><path id="Rectangle-12-2" data-name="Rectangle-12" class="cls-1" d="M500.08,173v6.24h6.25V173Z"/><path id="Rectangle-12-3" data-name="Rectangle-12" class="cls-1" d="M474.05,147.22v6.24h6.25v-6.24Z"/><path id="Rectangle-12-4" data-name="Rectangle-12" class="cls-1" d="M525.86,147.22v6.24h6.25v-6.24Z"/><line id="Line" class="cls-2" x1="529.24" y1="126.67" x2="529.24" y2="146.18"/><line id="Line-2" data-name="Line" class="cls-2" x1="529.24" y1="153.99" x2="529.24" y2="173.5"/><circle id="Oval-5-7" data-name="Oval-5" class="cls-2" cx="529.24" cy="125.89" r="3.12"/><circle id="Oval-5-8" data-name="Oval-5" class="cls-2" cx="529.24" cy="175.32" r="3.12"/><g id="Group-60"><rect id="Rectangle-15" class="cls-2" x="440.46" y="118.6" width="16.14" height="16.13" rx="3.12"/><rect id="Rectangle-15-2" data-name="Rectangle-15" class="cls-2" x="440.46" y="142.02" width="16.14" height="16.13" rx="3.12"/><rect id="Rectangle-15-3" data-name="Rectangle-15" class="cls-2" x="440.46" y="165.43" width="16.14" height="16.13" rx="3.12"/></g><ellipse id="Oval-8" class="cls-2" cx="632.34" cy="238.02" rx="15.62" ry="15.61"/><ellipse id="Oval-8-2" data-name="Oval-8" class="cls-2" cx="632.34" cy="238.02" rx="9.11" ry="9.11"/><circle id="Oval-8-3" data-name="Oval-8" class="cls-2" cx="611.51" cy="214.35" r="5.21"/><path id="Rectangle-16" class="cls-1" d="M588.6,213.05a1,1,0,0,0-1,1V257.8a5.2,5.2,0,0,0,5.2,5.2h35.92a5.2,5.2,0,0,0,5.2-5.2V214.09a1,1,0,0,0-1-1Z"/><rect id="Rectangle-16-2" data-name="Rectangle-16" class="cls-2" x="609.69" y="227.1" width="13.54" height="16.65" rx="3.12"/><line id="Line-2-2" data-name="Line-2" class="cls-2" x1="616.33" y1="213.44" x2="616.33" y2="225.27"/><path id="Oval-8-4" data-name="Oval-8" class="cls-1" d="M557.88,262.74H573.5a15.62,15.62,0,0,0-31.24,0Z"/><path id="Rectangle-11-33" data-name="Rectangle-11" class="cls-1" d="M557.88,246.61h0a1,1,0,0,1,1,1V249a1,1,0,0,1-1,1h0a1,1,0,0,1-1-1v-1.3A1,1,0,0,1,557.88,246.61Z"/><path id="Rectangle-17" class="cls-1" d="M16.35,232a15.35,15.35,0,0,0,0,30.7h63a1.56,1.56,0,0,0,1.56-1.56v-2.42A2.08,2.08,0,0,0,79,256.69C71.84,256.18,68,253,68,247.39s3.8-8.79,10.95-9.3A2.08,2.08,0,0,0,80.93,236V233.6A1.56,1.56,0,0,0,79.37,232Z"/><path id="Rectangle-19" class="cls-5" d="M79.37,257.33a.46.46,0,0,1-.45.46H15.33a10.41,10.41,0,1,1,0-20.82H78.92a.46.46,0,0,1,.45.46"/><rect id="Rectangle-18" class="cls-3" x="14.02" y="242.97" width="54.67" height="2.08" rx="1.04"/><rect id="Rectangle-18-2" data-name="Rectangle-18" class="cls-3" x="14.02" y="249.47" width="54.67" height="2.08" rx="1.04"/><path id="Shape" class="cls-3" d="M65.09,180.1l-3.84-3.41-6.1-5.43L53.76,170v1.64l3.83-3.4,6.1-5.43,1.4-1.24a1.16,1.16,0,0,0,0-1.64,1.22,1.22,0,0,0-1.66,0l-3.83,3.41c-2,1.8-4.06,3.62-6.1,5.42L52.1,170a1.18,1.18,0,0,0,0,1.64l3.84,3.41L62,180.5l1.39,1.23a1.19,1.19,0,0,0,1.66,0,1.17,1.17,0,0,0,0-1.63Z"/><path id="Shape-2" data-name="Shape" class="cls-3" d="M84.54,161.59,88.37,165l6.11,5.43,1.39,1.24V170L92,173.43l-6.1,5.43-1.4,1.24a1.16,1.16,0,0,0,0,1.64,1.21,1.21,0,0,0,1.65,0L90,178.33c2-1.8,4.06-3.62,6.1-5.42l1.39-1.24a1.16,1.16,0,0,0,0-1.64l-3.83-3.41-6.1-5.43L86.19,160a1.18,1.18,0,0,0-1.65,0,1.16,1.16,0,0,0,0,1.63Z"/><path id="Shape-3" data-name="Shape" class="cls-3" d="M70.65,186.92l1-3.14,2.5-7.51q1.5-4.54,3-9.07c.87-2.61,1.73-5.22,2.6-7.83.42-1.27.89-2.54,1.27-3.82l0-.05a1.17,1.17,0,0,0-.82-1.43,1.19,1.19,0,0,0-1.43.81l-1,3.14-2.5,7.51c-1,3-2,6-3,9.07l-2.61,7.83c-.41,1.27-.88,2.53-1.26,3.81l0,.06a1.16,1.16,0,0,0,.82,1.42,1.18,1.18,0,0,0,1.43-.8Z"/></g></g></svg>