<svg xmlns="http://www.w3.org/2000/svg" viewBox="0 0 57.06 53.09"><defs><style>.cls-1{fill:#0098f0;}</style></defs><g id="Layer_2" data-name="Layer 2"><g id="Layer_4" data-name="Layer 4"><path class="cls-1" d="M55.67,7.09a13.09,13.09,0,0,0-23.27,0l-4.31,9.47h8.38L39.1,10.4a5.55,5.55,0,0,1,9.87,0,5.27,5.27,0,0,1-.24,5.29A5.43,5.43,0,0,1,44,18.27H11.56v7.4H44A13,13,0,0,0,55.1,19.58,12.58,12.58,0,0,0,55.67,7.09Z"/><path class="cls-1" d="M1.39,46A12.94,12.94,0,0,0,13,53.09,12.93,12.93,0,0,0,24.66,46L29,36.53H20.59L18,42.7a5.43,5.43,0,0,1-4.93,3,5.43,5.43,0,0,1-4.94-3,5.29,5.29,0,0,1,.24-5.3A5.44,5.44,0,0,1,13,34.82H45.5V27.43H13A13,13,0,0,0,2,33.51,12.58,12.58,0,0,0,1.39,46Z"/></g></g></svg>