<svg xmlns="http://www.w3.org/2000/svg" xmlns:xlink="http://www.w3.org/1999/xlink" viewBox="0 0 197.05 218.89"><defs><style>.cls-1{fill:#fff;}.cls-1,.cls-11,.cls-13,.cls-14,.cls-18,.cls-2,.cls-4,.cls-5,.cls-6,.cls-7,.cls-9{fill-rule:evenodd;}.cls-2{fill:#0098f0;}.cls-3{mask:url(#mask);}.cls-4{fill:#ffdbb4;}.cls-5{fill-opacity:0.1;}.cls-6{fill:#4a312c;}.cls-7{fill:#b7c1db;}.cls-8{mask:url(#mask-4);}.cls-9{fill:#293347;}.cls-10{mask:url(#mask-5);}.cls-11{fill:#f4f4f4;}.cls-12{mask:url(#mask-6-4);}.cls-13{fill-opacity:0.16;}.cls-14{fill-opacity:0.7;}.cls-15{mask:url(#mask-7);}.cls-16{mask:url(#mask-8-4);}.cls-17{fill:#ff4f6d;}.cls-18{fill-opacity:0.6;}</style><mask id="mask" x="18.68" y="24.89" width="165.36" height="200.67" maskUnits="userSpaceOnUse"><g id="mask-6"><path id="path-5" class="cls-1" d="M101.36,24.89A46.18,46.18,0,0,1,147.66,71V76a9.88,9.88,0,0,1,8.27,9.73V97.26a9.89,9.89,0,0,1-8.52,9.78,46.1,46.1,0,0,1-26.2,36.78V159h3.3A59.37,59.37,0,0,1,184,218.16v7.4H18.68v-7.4A59.38,59.38,0,0,1,78.21,159h3.31V143.82A46.09,46.09,0,0,1,55.31,107a9.9,9.9,0,0,1-8.52-9.78V85.75A9.89,9.89,0,0,1,55.06,76V71A46.18,46.18,0,0,1,101.36,24.89Z"/></g></mask><mask id="mask-4" x="18.15" y="127.97" width="166.3" height="90.98" maskUnits="userSpaceOnUse"><g id="mask-8"><path id="path-7" class="cls-1" d="M121.26,138.36c15,1.68,26.6,6.31,26.6,18.3v-.36a59.88,59.88,0,0,1,36.59,55.17V219H18.15v-7.49A59.88,59.88,0,0,1,54.74,156.3c.23-11.72,11.7-16.27,26.6-17.94V154.1a20,20,0,1,0,39.91,0h0Z"/></g></mask><mask id="mask-5" x="18.15" y="138.36" width="166.3" height="80.6" maskUnits="userSpaceOnUse"><g id="mask-8-2" data-name="mask-8"><path id="path-7-2" data-name="path-7" class="cls-1" d="M121.26,138.36c15,1.68,26.6,6.31,26.6,18.3v-.36a59.88,59.88,0,0,1,36.59,55.17V219H18.15v-7.49A59.88,59.88,0,0,1,54.74,156.3c.23-11.72,11.7-16.27,26.6-17.94V154.1a20,20,0,1,0,39.91,0h0Z"/></g></mask><mask id="mask-6-4" x="18.15" y="138.07" width="166.3" height="80.88" maskUnits="userSpaceOnUse"><g id="mask-8-3" data-name="mask-8"><path id="path-7-3" data-name="path-7" class="cls-1" d="M121.26,138.36c15,1.68,26.6,6.31,26.6,18.3v-.36a59.88,59.88,0,0,1,36.59,55.17V219H18.15v-7.49A59.88,59.88,0,0,1,54.74,156.3c.23-11.72,11.7-16.27,26.6-17.94V154.1a20,20,0,1,0,39.91,0h0Z"/></g></mask><mask id="mask-7" x="82.98" y="105.57" width="34.01" height="27" maskUnits="userSpaceOnUse"><g id="mask-10"><path id="path-9" class="cls-1" d="M83,117.38a17.1,17.1,0,0,0,34-.08,1.87,1.87,0,0,0-1.66-1.83H84.76A1.91,1.91,0,0,0,83,117.38Z"/></g></mask><mask id="mask-8-4" x="82.98" y="115.47" width="34.01" height="29.7" maskUnits="userSpaceOnUse"><g id="mask-10-2" data-name="mask-10"><path id="path-9-2" data-name="path-9" class="cls-1" d="M83,117.38a17.1,17.1,0,0,0,34-.08,1.87,1.87,0,0,0-1.66-1.83H84.76A1.91,1.91,0,0,0,83,117.38Z"/></g></mask></defs><g id="Layer_2" data-name="Layer 2"><g id="Layer_4" data-name="Layer 4"><g id="Circle"><g id="Circle-Background"><path class="cls-2" d="M197.05,120.36q0,3.6-.26,7.13A98,98,0,0,1,176.15,181c-.46.59-.93,1.18-1.41,1.76l-.7.84c-.33.4-.66.79-1,1.17l-.39.45c-.29.34-.59.67-.89,1s-.58.65-.88,1q-1.74,1.89-3.59,3.68l0,0c-.29.29-.59.57-.89.85l0,0-.56.53c-.18.17-.36.35-.55.51s-.55.51-.82.74-.71.65-1.07,1-.56.5-.85.74l-.15.13c-.44.37-.89.75-1.35,1.12l-.36.3-.24.19c-.44.36-.89.71-1.34,1.06l0,0c-.24.2-.49.38-.73.56l0,0c-.36.29-.73.56-1.1.83l-.09.07c-.32.24-.64.48-1,.71l0,0c-.48.35-1,.69-1.47,1-.21.15-.41.3-.62.43l-.14.09c-.46.32-.93.62-1.39.93l-.06,0c-.19.14-.39.26-.59.39l-.12.07-1.78,1.12-.13.08-.19.12c-.77.46-1.54.92-2.32,1.36l-1.2.67c-.4.23-.81.45-1.21.66l-.66.35c-.48.26-1,.51-1.45.74q-.42.22-.84.42-1,.49-2,1l-.37.17h0c-.59.28-1.2.54-1.8.8l-.1,0-.7.3c-.54.24-1.08.46-1.62.67l-.57.23-.17.07c-.72.28-1.44.56-2.17.82l-.21.08c-.76.28-1.52.54-2.29.8s-1.36.45-2,.65l-.28.09-.71.22q-.93.28-1.86.54l-1.9.5q-.59.17-1.17.3l-.14,0c-.58.15-1.17.28-1.76.41-.24.06-.47.11-.71.15l-.19,0c-.62.14-1.25.27-1.88.39l-.62.12-1.8.31-.36.06-.52.09-2.35.34h0q-2.7.36-5.43.57l-.3,0c-.82.06-1.65.11-2.48.15h0l-.42,0-2,.07c-.8,0-1.61,0-2.42,0s-1.53,0-2.29,0h-.56l-2-.08h0l-2.2-.13-2-.17-.45,0-1.47-.15c-.88-.1-1.76-.21-2.63-.33l-1.25-.19c-.46-.06-.92-.14-1.37-.21l-1-.17-.24,0c-.66-.11-1.32-.24-2-.37-.9-.18-1.8-.37-2.69-.57q-2.94-.69-5.82-1.54A98.61,98.61,0,0,1,.26,127.49Q0,124,0,120.36a98.53,98.53,0,0,1,197.05,0Z"/></g></g><g class="cls-3"><g id="Skin_-05-Pale" data-name="Skin/ðŸ‘¶ðŸ»-05-Pale"><g id="Color"><path class="cls-4" d="M176.46,181c-.47.59-.94,1.18-1.42,1.76l-.71.84c-.33.4-.66.79-1,1.17l-.39.45c-.29.34-.6.67-.9,1s-.58.65-.88,1c-1.17,1.26-2.38,2.49-3.61,3.68l0,0c-.29.29-.59.57-.9.85l0,0-.56.53c-.18.17-.36.35-.55.51s-.56.51-.83.74-.71.65-1.07,1l-.86.74-.15.13c-.44.37-.89.75-1.36,1.12l-.36.3-.24.19c-.44.36-.89.71-1.35,1.06l0,0c-.24.2-.49.38-.73.56l0,0c-.36.29-.73.56-1.11.83l-.09.07c-.32.24-.64.48-1,.71,0,0,0,0,0,0-.48.35-1,.69-1.48,1-.21.15-.41.3-.62.43l-.14.09-1.4.93-.06,0c-.19.14-.39.26-.59.39l-.12.07-1.79,1.12-.13.08-.2.12c-.77.46-1.54.92-2.33,1.36l-1.2.67-1.22.66-.66.35c-.49.26-1,.51-1.46.74-.28.15-.56.29-.85.42-.66.33-1.33.65-2,1l-.37.17h0c-.59.28-1.21.54-1.81.8l-.1,0-.7.3c-.55.24-1.09.46-1.63.67l-.57.23-.18.07c-.72.28-1.44.56-2.18.82l-.21.08c-.76.28-1.53.54-2.3.8s-1.37.45-2,.65l-.28.09-.72.22c-.62.19-1.24.37-1.87.54l-1.91.5q-.59.17-1.17.3l-.14,0c-.59.15-1.18.28-1.77.41-.24.06-.47.11-.72.15l-.19,0q-.93.21-1.89.39l-.62.12-1.81.31-.36.06-.52.09-2.37.34h0q-2.72.36-5.46.57l-.3,0c-.82.06-1.66.11-2.49.15H93.51l-2.21-.13-2-.17-.46,0-1.47-.15c-.89-.1-1.77-.21-2.65-.33l-1.26-.19c-.46-.06-.92-.14-1.37-.21l-1-.17-.24,0c-.66-.11-1.33-.24-2-.37-.9-.18-1.81-.37-2.7-.57q-3-.69-5.85-1.54A99,99,0,0,1,23.76,185.1,60.22,60.22,0,0,1,54.4,156.3c.14-7.09,4.41-11.55,11.09-14.34,2,1.34,4.65,1.66,6.42.1,2.45,3.33,7.67,1.91,9.23-1.63l.15-.38c1.51-4.28,3.72-10.3,8.63-11.72,4-1.14,8.55.71,12.21,2,10.26,3.73,20,8.68,31.18,8.52a6.1,6.1,0,0,0,1.33-.18,19.68,19.68,0,0,0,2,3.11,15.68,15.68,0,0,0,4.69,4.08,19.66,19.66,0,0,0,3.61,1.6,14,14,0,0,1,3.11,9.16v-.36A60.3,60.3,0,0,1,176.46,181Z"/><path class="cls-4" d="M110.14,111.31a23.71,23.71,0,0,0,7.18,1.21C115,112.08,112.58,111.64,110.14,111.31Z"/></g></g></g><g class="cls-3"><path class="cls-5" d="M62.26,129.8c-1-.52-2-1.07-2.9-1.65A46.17,46.17,0,0,0,62,133.09,19.29,19.29,0,0,1,62.26,129.8Z"/></g><g class="cls-3"><path class="cls-5" d="M127,135.85c-7.8,6-15,12.41-25.59,12.41-8,0-15.71-3.87-22.27-7.41-2.24,1.68-7.92-.11-8.5.05,8.21,7.39,18.08,13.26,30,13.14,13.34-.13,22.31-8.18,30.77-17.29C131.14,136.33,128.2,136,127,135.85Z"/></g><path class="cls-6" d="M146.85,101.74l1.21,22.41c-3-10.3-6.66-10.9-6.66-10.9,3,11.5-1.82,24.82-1.82,24.82-1.21-18.77-7.26-31.48-7.26-31.48l8.48-12.72Z"/><g id="Hoodie"><path class="cls-7" d="M176.15,181c-.46.59-.93,1.18-1.41,1.76l-.7.84c-.33.4-.66.79-1,1.17l-.39.45c-.29.34-.59.67-.89,1s-.58.65-.88,1q-1.74,1.89-3.59,3.68l0,0c-.29.29-.59.57-.89.85l0,0-.56.53c-.18.17-.36.35-.55.51s-.55.51-.82.74-.71.65-1.07,1-.56.5-.85.74l-.15.13c-.44.37-.89.75-1.35,1.12l-.36.3-.24.19c-.44.36-.89.71-1.34,1.06l0,0c-.24.2-.49.38-.73.56l0,0c-.36.29-.73.56-1.1.83l-.09.07c-.32.24-.64.48-1,.71l0,0c-.48.35-1,.69-1.47,1-.21.15-.41.3-.62.43l-.14.09c-.46.32-.93.62-1.39.93l-.06,0c-.19.14-.39.26-.59.39l-.12.07-1.78,1.12-.13.08-.19.12c-.77.46-1.54.92-2.32,1.36l-1.2.67c-.4.23-.81.45-1.21.66l-.66.35c-.48.26-1,.51-1.45.74q-.42.22-.84.42-1,.49-2,1l-.37.17h0c-.59.28-1.2.54-1.8.8l-.1,0-.7.3c-.54.24-1.08.46-1.62.67l-.57.23-.17.07c-.72.28-1.44.56-2.17.82l-.21.08c-.76.28-1.52.54-2.29.8s-1.36.45-2,.65l-.28.09-.71.22q-.93.28-1.86.54l-1.9.5q-.59.17-1.17.3l-.14,0c-.58.15-1.17.28-1.76.41-.24.06-.47.11-.71.15l-.19,0c-.62.14-1.25.27-1.88.39l-.62.12-1.8.31-.36.06-.52.09-2.35.34h0q-2.7.36-5.43.57l-.3,0c-.82.06-1.65.11-2.48.15h0l-.42,0-2,.07c-.8,0-1.61,0-2.42,0s-1.53,0-2.29,0h-.56l-2-.08h0l-2.2-.13-2-.17-.45,0-1.47-.15c-.88-.1-1.76-.21-2.63-.33l-1.25-.19c-.46-.06-.92-.14-1.37-.21l-1-.17-.24,0c-.66-.11-1.32-.24-2-.37-.9-.18-1.8-.37-2.69-.57q-2.94-.69-5.82-1.54A98.48,98.48,0,0,1,24.26,185.1a60,60,0,0,1,30.48-28.8c.14-7.09,4.39-11.55,11-14.34a57.16,57.16,0,0,1,15.57-3.6V154.1a20,20,0,1,0,39.91,0V138.36a58,58,0,0,1,15.25,3.46,20.25,20.25,0,0,1,8.26,5.68,14,14,0,0,1,3.09,9.16v-.36A60,60,0,0,1,176.15,181Z"/></g><g class="cls-8"><g id="Color_Palette_Slate" data-name="Color/Palette/Slate"><path class="cls-9" d="M176.15,181c-.46.59-.93,1.18-1.41,1.76l-.7.84c-.33.4-.66.79-1,1.17l-.39.45c-.29.34-.59.67-.89,1s-.58.65-.88,1q-1.74,1.89-3.59,3.68l0,0c-.29.29-.59.57-.89.85l0,0-.56.53c-.18.17-.36.35-.55.51s-.55.51-.82.74-.71.65-1.07,1-.56.5-.85.74l-.15.13c-.44.37-.89.75-1.35,1.12l-.36.3-.24.19c-.44.36-.89.71-1.34,1.06l0,0c-.24.2-.49.38-.73.56l0,0c-.36.29-.73.56-1.1.83l-.09.07c-.32.24-.64.48-1,.71l0,0c-.48.35-1,.69-1.47,1-.21.15-.41.3-.62.43l-.14.09c-.46.32-.93.62-1.39.93l-.06,0c-.19.14-.39.26-.59.39l-.12.07-1.78,1.12-.13.08-.19.12c-.77.46-1.54.92-2.32,1.36l-1.2.67c-.4.23-.81.45-1.21.66l-.66.35c-.48.26-1,.51-1.45.74q-.42.22-.84.42-1,.49-2,1l-.37.17h0c-.59.28-1.2.54-1.8.8l-.1,0-.7.3c-.54.24-1.08.46-1.62.67l-.57.23-.17.07c-.72.28-1.44.56-2.17.82l-.21.08c-.76.28-1.52.54-2.29.8s-1.36.45-2,.65l-.28.09-.71.22q-.93.28-1.86.54l-1.9.5q-.59.17-1.17.3l-.14,0c-.58.15-1.17.28-1.76.41-.24.06-.47.11-.71.15l-.19,0c-.62.14-1.25.27-1.88.39l-.62.12-1.8.31-.36.06-.52.09-2.35.34h0q-2.7.36-5.43.57l-.3,0c-.82.06-1.65.11-2.48.15h0l-.42,0-2,.07c-.8,0-1.61,0-2.42,0s-1.53,0-2.29,0h-.56l-2-.08h0l-2.2-.13-2-.17-.45,0-1.47-.15c-.88-.1-1.76-.21-2.63-.33l-1.25-.19c-.46-.06-.92-.14-1.37-.21l-1-.17-.24,0c-.66-.11-1.32-.24-2-.37-.9-.18-1.8-.37-2.69-.57q-2.94-.69-5.82-1.54A98.48,98.48,0,0,1,24.26,185.1a60,60,0,0,1,30.48-28.8c.14-7.09,4.39-11.55,11-14.34a57.16,57.16,0,0,1,15.57-3.6v2.07l.15-.38c1.5-4.28,3.7-10.3,8.58-11.72,3.93-1.14,8.51.71,12.15,2,10.2,3.73,19.87,8.68,31,8.52a6.1,6.1,0,0,0,1.33-.18,19.57,19.57,0,0,0,1.95,3.11,20.25,20.25,0,0,1,8.26,5.68,14,14,0,0,1,3.09,9.16v-.36A60,60,0,0,1,176.15,181Z"/></g></g><g class="cls-10"><path id="Straps" class="cls-11" d="M126.24,178.83v30.56a2.91,2.91,0,0,0,5.82,0V175.84A55,55,0,0,1,126.24,178.83Zm-55.71-3v39q2.88.85,5.82,1.54V178.83A53.9,53.9,0,0,1,70.53,175.84Z"/></g><g class="cls-12"><path id="Shadow" class="cls-13" d="M135.42,138.07c12.52,2.37,21.17,7.08,21.17,16.29,0,16.39-27.47,29.67-55.29,29.67S46,170.75,46,154.36c0-9.21,8.66-13.92,21.18-16.29-7.56,2.79-12.45,7.47-12.45,15.26,0,17,23.14,30.7,46.57,30.7s46.56-13.74,46.56-30.7c0-7.63-4.68-12.28-12-15.08Z"/></g><path class="cls-6" d="M68.25,141a13.16,13.16,0,0,1,1.73-.5c3.59-.66,7-1.82,10.68-1.67a5.57,5.57,0,0,1,2.11.54l2.11-3.32L71.62,107.22,61.33,90.69,49.64,95.84c.31,6.86.31,16.68-7.8,20.89,5.62-.62,9.83-3.58,10.14-4.21-2.34,4.06-5.3,8.42-12.63,9C50,121.25,53.23,117,54,115.64c-3.27,5.93-4.21,8-8.1,8.73,6.63-.08,10.6-7.33,10.6-7.33C56,125.11,62.53,134.48,68.25,141Z"/><path class="cls-6" d="M149.85,94.67l-9-4-10.29,16.53-13.25,28.85,2.11,3.32a5.57,5.57,0,0,1,2.11-.54c3.73-.15,7.05,1.31,10.68,1.67A6.21,6.21,0,0,1,134,141a78,78,0,0,0,5.24-6.7,66.1,66.1,0,0,0-1.39-13.08,57.1,57.1,0,0,0-2.78-6.85,4.9,4.9,0,0,1,1.14-6.1c0-.11,0-.21-.07-.32-.79-4.21,3.26-6.79,6.38-6.16a12.53,12.53,0,0,1,1.1-2.28,4.82,4.82,0,0,1,6.35-1.84.13.13,0,0,1,0,0C149.91,96.64,149.87,95.67,149.85,94.67Z"/><path class="cls-4" d="M156.71,65.74h0Z"/><path class="cls-4" d="M150.44,98.78c-1,5.49-1.85,8-8.55,7.88,0,0-11.42,42.77-41.62,43.9H99.12c-30.2-1.13-41.62-43.9-41.62-43.9-6.7.13-7.59-2.39-8.55-7.88S44.71,77.26,46.79,75.1s8.47.26,8.47.26c.8-23.68,6.76-53.29,44.29-54.18h.29c37.53.89,43.49,30.5,44.29,54.18,0,0,6.4-2.42,8.47-.26S151.4,93.29,150.44,98.78Z"/><path class="cls-4" d="M156.85,65.74h0Z"/><g id="Mouth_Smile" data-name="Mouth/Smile"><g id="Mouth"><path id="path-9-3" data-name="path-9" class="cls-14" d="M83,117.38a17.1,17.1,0,0,0,34-.08,1.87,1.87,0,0,0-1.66-1.83H84.76A1.91,1.91,0,0,0,83,117.38Z"/></g><g class="cls-15"><path id="Teeth" class="cls-1" d="M91,105.57h18.9a4.49,4.49,0,0,1,4.5,4.5v5.4a4.5,4.5,0,0,1-4.5,4.5H91a4.5,4.5,0,0,1-4.5-4.5v-5.4A4.49,4.49,0,0,1,91,105.57Z"/></g><g class="cls-16"><g id="Tongue"><circle class="cls-17" cx="95.48" cy="135.27" r="9.9"/><circle class="cls-17" cx="104.48" cy="135.27" r="9.9"/></g></g></g><g id="Nose_Default" data-name="Nose/Default"><path id="Nose" class="cls-13" d="M89.18,100.17c0,4,4.84,7.2,10.8,7.2h0c6,0,10.8-3.23,10.8-7.2"/></g><g id="Eyes_Happy-_" data-name="Eyes/Happy-ðŸ˜"><path id="Squint" class="cls-18" d="M68.21,80.35a9.52,9.52,0,0,1,17.27,0c.44,1-.19,1.75-.82,1.16a11.87,11.87,0,0,0-15.43-.16C68.52,81.94,67.78,81.3,68.21,80.35Z"/><path id="Squint-2" data-name="Squint" class="cls-18" d="M114.46,80.35a9.52,9.52,0,0,1,17.27,0c.44,1-.19,1.75-.82,1.16a11.87,11.87,0,0,0-15.43-.16C114.77,81.94,114,81.3,114.46,80.35Z"/></g><path id="Eyebrow" class="cls-18" d="M124.22,62.56c5.16-.91,14.23.94,15.18,6.13a.22.22,0,0,1-.35.19c-1.58-1.08-7.62-2.34-13.48-1.85a39.69,39.69,0,0,0-13,3.79c-.52.26-1.07-.19-.8-.67,2.24-4.05,7.87-6.78,12.48-7.59"/><path id="Eyebrow-2" data-name="Eyebrow" class="cls-18" d="M75.32,62.56c4.61.81,10.24,3.54,12.49,7.59.26.48-.29.93-.81.67A39.55,39.55,0,0,0,74,67c-5.87-.49-11.9.77-13.49,1.85a.22.22,0,0,1-.35-.19c1-5.19,10-7,15.18-6.13"/><path class="cls-6" d="M100.47,25.47c5.18-1.34,5.45-2.64,15.5.29s18.41,9.63,21.76,17.16,6.52,30.14,6.4,32.44l3.53-1.3c-.18-4.7,1-11.91.27-18.81-1.74-15.88-7.35-33.54-17.58-39.61a62,62,0,0,0-30.19-8.26Z"/><path class="cls-6" d="M100.47,25.47c-4.92-2.09-5.76-2.64-15.8.29S66.25,35.39,62.91,42.92s-6.53,30.14-6.4,32.44L53,74.06c.15-3.84-.37-11,.12-16.4,1.5-16.6,6.15-35.46,17.2-42a62,62,0,0,1,30.18-8.26Z"/><path class="cls-9" d="M100.16,40.94c16.12,0,30.16-1.1,48,16.72,0-22.06-6-57.66-48-57.66.34,0,0,8.3,0,8.3l11.09,1.87a16.28,16.28,0,0,1,12.69,10.77l2.3,6.69a1.07,1.07,0,0,1-1,1.41l-25-.46Z"/><path class="cls-9" d="M101.06,40.94c-16.12,0-30.15-1.1-48,16.72,0-22.06,6-57.66,48-57.66-.33,0,0,8.3,0,8.3L90,10.17A16.31,16.31,0,0,0,77.28,20.94L75,27.63A1.06,1.06,0,0,0,76,29l25-.46Z"/></g></g></svg>